
<svg x="0px" y="0px"
	 viewBox="0 0 141.73 141.73">
<style type="text/css">
	.svg-ract{fill:url(#SVGID_1_);}
	.svg-text{fill:#FFFFFF;}
</style>
<linearGradient id="SVGID_1_" gradientUnits="userSpaceOnUse" x1="69.7283" y1="20.7443" x2="69.7283" y2="118.4529">
	<stop  offset="0" style="stop-color:#2DB3AB"/>
	<stop  offset="0.6314" style="stop-color:#AFC5D0"/>
	<stop  offset="1" style="stop-color:#F7C0A4"/>
</linearGradient>
<circle class="svg-ract" cx="69.73" cy="70.42" r="49.22"/>
<g>
	<path class="st1" d="M113.47,20.44c0.55-0.35,1.21-0.8,1.96-1.33c-0.14,0.25-0.5,0.96-1.07,2.12l-6.84,13.88l1.86,1.66l17.03-11.04
		L124.47,24l-10.66,7.35c-1.37,0.93-2.55,1.77-3.56,2.53c1.21-1.82,2.36-3.88,3.47-6.19l4.5-9.26l-2.33-2.08l-11.58,7.39
		c-0.28,0.18-1.3,0.88-3.07,2.11c0.71-1.14,1.39-2.32,2.05-3.54l6.31-11.56l-1.98-1.77l-9.15,18.07l1.97,1.76L113.47,20.44z"/>
	<path class="st1" d="M118.34,37.26c-2.04,1.08-3.34,2.45-3.9,4.13c-0.56,1.67-0.35,3.42,0.62,5.26c0.77,1.46,1.76,2.46,2.96,3.02
		c1.2,0.56,2.54,0.68,4,0.34l-0.89-2.34c-1.07,0.15-1.95,0.06-2.65-0.27c-0.7-0.33-1.26-0.89-1.67-1.67
		c-0.55-1.05-0.65-2.11-0.29-3.2c0.36-1.09,1.21-2.04,2.54-2.84l4.95,9.35c0.26-0.13,0.45-0.22,0.57-0.29
		c2.07-1.1,3.39-2.48,3.97-4.14s0.42-3.34-0.46-5.01c-0.92-1.73-2.25-2.83-3.98-3.3C122.37,35.82,120.45,36.14,118.34,37.26z
		 M126.36,40.53c0.57,1.08,0.63,2.17,0.17,3.28c-0.29,0.72-0.94,1.41-1.95,2.06l-3.71-7c1.13-0.51,2.2-0.6,3.2-0.28
		C125.08,38.91,125.84,39.56,126.36,40.53z"/>
	
		<rect x="118.54" y="51.21" transform="matrix(0.9564 -0.2922 0.2922 0.9564 -9.7139 39.7849)" class="st1" width="19.57" height="2.4"/>
	<path class="st1" d="M134.08,59.9c-0.69-0.96-1.64-1.62-2.84-1.99c-1.2-0.37-2.56-0.46-4.08-0.28c-2.35,0.28-4.09,1.09-5.2,2.41
		c-1.12,1.32-1.56,2.95-1.33,4.87c0.18,1.54,0.8,2.78,1.84,3.73c1.04,0.95,2.39,1.45,4.04,1.51l0.02-2.38
		c-1.21-0.02-2.14-0.32-2.79-0.87c-0.65-0.56-1.03-1.31-1.14-2.24c-0.14-1.17,0.17-2.16,0.94-2.99c0.77-0.83,2.1-1.36,3.99-1.58
		c1.86-0.22,3.27-0.01,4.22,0.63s1.5,1.57,1.65,2.77c0.1,0.8-0.06,1.5-0.47,2.12c-0.41,0.62-1.07,1.1-1.99,1.43l0.64,2.28
		c1.39-0.45,2.41-1.2,3.07-2.27c0.66-1.07,0.89-2.36,0.71-3.89C135.19,61.95,134.77,60.86,134.08,59.9z"/>
	<path class="st1" d="M128.68,71.77c-2.37-0.32-4.27,0.04-5.7,1.08c-1.43,1.04-2.27,2.54-2.54,4.51c-0.17,1.23-0.04,2.4,0.4,3.51
		c0.43,1.12,1.13,2.01,2.09,2.7c0.96,0.68,2.35,1.15,4.16,1.4c2.23,0.3,4.06-0.07,5.5-1.13c1.43-1.05,2.28-2.54,2.54-4.48
		c0.24-1.74-0.08-3.28-0.96-4.63C133.11,73.1,131.28,72.12,128.68,71.77z M133.16,79.09c-0.16,1.17-0.74,2.09-1.74,2.76
		c-1,0.67-2.37,0.88-4.11,0.64c-1.84-0.25-3.16-0.83-3.95-1.74c-0.79-0.91-1.11-1.95-0.95-3.13c0.16-1.19,0.74-2.12,1.75-2.78
		s2.4-0.87,4.2-0.63c1.8,0.25,3.09,0.82,3.88,1.73S133.32,77.9,133.16,79.09z"/>
	<path class="st1" d="M118.83,87.58l6.54,3.37c1.15,0.59,1.97,1.16,2.46,1.7c0.49,0.54,0.76,1.15,0.82,1.83
		c0.05,0.67-0.07,1.31-0.38,1.91c-0.41,0.79-0.94,1.24-1.59,1.34c-0.65,0.1-1.46-0.09-2.41-0.58l-8.19-4.22l-1.1,2.14l7.32,3.77
		c1.3,0.67,2.09,1.45,2.38,2.34c0.29,0.89,0.2,1.78-0.25,2.66c-0.25,0.49-0.59,0.86-1,1.1c-0.42,0.25-0.85,0.34-1.3,0.29
		c-0.45-0.05-1.1-0.3-1.95-0.74l-7.94-4.09l-1.09,2.13l8.65,4.46c1.44,0.74,2.68,0.95,3.72,0.64c1.04-0.32,1.88-1.1,2.52-2.35
		c0.82-1.6,0.76-3.28-0.2-5.03c0.82,0.11,1.58-0.03,2.28-0.43c0.7-0.4,1.28-1.06,1.76-2c0.43-0.84,0.63-1.68,0.59-2.53
		c-0.04-0.85-0.26-1.63-0.68-2.35l1.77,0.91l0.98-1.91l-12.61-6.49L118.83,87.58z"/>
	<path class="st1" d="M110.71,119.46c-0.79-0.34-1.7-0.46-2.75-0.34c-0.81,0.09-2.08,0.46-3.81,1.11s-2.87,1.04-3.42,1.17
		c-0.85,0.2-1.56,0.21-2.11,0.03c-0.55-0.18-1-0.52-1.34-1.03c-0.34-0.5-0.5-1.07-0.48-1.7s0.26-1.28,0.72-1.95
		c0.46-0.67,1.1-1.28,1.92-1.83c0.92-0.62,1.86-1.03,2.81-1.2s1.78-0.13,2.48,0.16c0.7,0.28,1.38,0.8,2.02,1.54l1.9-1.55
		c-0.76-1.06-1.72-1.83-2.86-2.31c-1.15-0.48-2.36-0.59-3.64-0.35c-1.28,0.24-2.65,0.86-4.12,1.86c-1.16,0.78-2.05,1.7-2.69,2.75
		c-0.64,1.05-0.94,2.12-0.92,3.22c0.02,1.1,0.33,2.08,0.91,2.94c0.59,0.87,1.33,1.49,2.24,1.85s1.97,0.44,3.21,0.24
		c0.85-0.14,2.28-0.61,4.29-1.4c2.01-0.79,3.35-1.13,4.02-1.04c0.67,0.09,1.21,0.43,1.6,1.01c0.46,0.67,0.55,1.44,0.28,2.32
		c-0.27,0.88-1.05,1.75-2.35,2.63c-1.25,0.84-2.36,1.22-3.36,1.13c-0.99-0.09-1.89-0.61-2.69-1.56l-1.95,1.55
		c0.68,0.93,1.52,1.6,2.53,2.01s2.09,0.51,3.27,0.27c1.18-0.24,2.37-0.76,3.57-1.57c1.09-0.74,1.96-1.6,2.6-2.57s0.95-1.97,0.94-3
		c-0.02-1.03-0.3-1.95-0.86-2.77C112.14,120.35,111.49,119.8,110.71,119.46z"/>
	<path class="st1" d="M89.75,119.76c-1.51-0.85-3.19-0.98-5.04-0.38c-1.47,0.47-2.58,1.31-3.31,2.51c-0.73,1.2-0.97,2.62-0.72,4.25
		l2.34-0.43c-0.21-1.2-0.1-2.17,0.33-2.91c0.43-0.74,1.09-1.26,1.99-1.55c1.12-0.36,2.16-0.24,3.12,0.36
		c0.96,0.6,1.73,1.81,2.31,3.62c0.57,1.79,0.63,3.21,0.18,4.27c-0.46,1.06-1.26,1.77-2.41,2.14c-0.76,0.25-1.49,0.22-2.17-0.06
		c-0.69-0.29-1.28-0.85-1.78-1.69l-2.12,1.06c0.7,1.28,1.63,2.14,2.8,2.59c1.17,0.44,2.49,0.43,3.96-0.04
		c1.16-0.37,2.15-0.99,2.96-1.85s1.28-1.92,1.42-3.17c0.13-1.25-0.03-2.6-0.5-4.06C92.37,122.16,91.26,120.61,89.75,119.76z"/>
	<path class="st1" d="M75.63,121.59l0.79,7.38c0.11,1.01,0.07,1.95-0.1,2.83c-0.12,0.58-0.37,1.04-0.75,1.4
		c-0.38,0.36-0.83,0.57-1.36,0.62c-0.58,0.06-1.19-0.05-1.81-0.33l-0.59,2.3c0.89,0.42,1.73,0.59,2.54,0.51
		c0.56-0.06,1.05-0.27,1.48-0.64s0.87-1.08,1.31-2.14l0.23,2.14l2.15-0.23l-1.5-14.1L75.63,121.59z"/>
	<path class="st1" d="M64.18,121.3c-1.23-0.13-2.4,0.03-3.5,0.49c-1.1,0.46-1.98,1.18-2.64,2.16s-1.08,2.38-1.28,4.19
		c-0.24,2.24,0.18,4.06,1.27,5.46c1.09,1.4,2.61,2.21,4.54,2.42c1.74,0.19,3.28-0.17,4.6-1.08c1.59-1.1,2.52-2.95,2.81-5.56
		c0.26-2.38-0.15-4.27-1.23-5.67C67.68,122.32,66.15,121.52,64.18,121.3z M67.53,129.12c-0.2,1.8-0.74,3.11-1.62,3.92
		c-0.88,0.81-1.92,1.15-3.12,1.02c-1.18-0.13-2.11-0.68-2.81-1.67c-0.69-0.98-0.95-2.35-0.76-4.09c0.2-1.85,0.74-3.18,1.63-4
		c0.89-0.82,1.92-1.16,3.11-1.03c1.19,0.13,2.14,0.69,2.83,1.67C67.48,125.92,67.73,127.32,67.53,129.12z"/>
	
		<rect x="41.98" y="127.83" transform="matrix(0.2938 -0.9559 0.9559 0.2938 -86.7769 140.6122)" class="st1" width="19.57" height="2.4"/>
	
		<rect x="35.73" y="125.54" transform="matrix(0.3966 -0.918 0.918 0.3966 -88.879 118.2643)" class="st1" width="19.57" height="2.4"/>
	<path class="st1" d="M31.8,105.83c-0.81-0.48-1.59-0.79-2.36-0.93c-0.76-0.14-1.6-0.13-2.52,0.03c-0.91,0.16-1.9,0.53-2.95,1.11
		c-1.05,0.58-2.09,1.4-3.13,2.47c-1.22,1.25-2.12,2.54-2.7,3.87c-0.58,1.33-0.81,2.67-0.68,4.01c0.1,1.04,0.45,2.04,1.08,3.01
		c0.44,0.69,1.21,1.57,2.3,2.63l4.83,4.71l13.66-14.02l-5.06-4.93C33.43,106.96,32.61,106.31,31.8,105.83z M25.43,123.27l-2.94-2.87
		c-1.1-1.07-1.81-1.95-2.12-2.63c-0.43-0.94-0.5-2.04-0.21-3.29c0.29-1.26,1.14-2.62,2.57-4.08c1.03-1.06,2.03-1.84,3-2.34
		c0.97-0.5,1.89-0.76,2.76-0.77c0.62-0.01,1.27,0.16,1.97,0.5c0.69,0.34,1.5,0.96,2.43,1.86l2.99,2.92L25.43,123.27z"/>
	<path class="st1" d="M25.06,99.53c0.55-1.68,0.36-3.39-0.56-5.15c-0.58-1.09-1.37-1.97-2.37-2.62c-1-0.65-2.09-0.98-3.27-0.97
		s-2.58,0.44-4.19,1.29c-1.99,1.05-3.26,2.43-3.81,4.12s-0.37,3.4,0.54,5.12c0.82,1.55,1.98,2.62,3.48,3.2
		c1.8,0.7,3.86,0.43,6.18-0.79C23.17,102.6,24.5,101.2,25.06,99.53z M15.74,102.4c-1.17-0.28-2.03-0.95-2.59-2.01
		c-0.55-1.05-0.62-2.13-0.19-3.26c0.43-1.13,1.41-2.1,2.96-2.92c1.64-0.87,3.05-1.17,4.23-0.89c1.17,0.28,2.04,0.94,2.6,1.99
		c0.56,1.06,0.63,2.16,0.2,3.28c-0.43,1.12-1.44,2.11-3.05,2.96C18.29,102.39,16.91,102.68,15.74,102.4z"/>
	<path class="st1" d="M19.52,82.3L8.28,81.36l2.29-0.96l7.97-3.69l-0.43-2.46L3.37,72.34l0.4,2.3l8.5,0.97l2.84,0.33l-2.55,1.17
		l-7.73,3.51l0.43,2.43l8.57,0.78c1.85,0.14,2.85,0.21,3.01,0.22l-2.85,1.36l-7.67,3.64l0.43,2.45l13.21-6.73L19.52,82.3z"/>
	<path class="st1" d="M18.24,66.79l-7.67-1.04c-1.8-0.24-2.97-0.78-3.51-1.6c-0.54-0.82-0.75-1.74-0.61-2.76
		c0.09-0.64,0.31-1.17,0.66-1.6c0.35-0.43,0.78-0.71,1.29-0.83c0.51-0.12,1.24-0.11,2.21,0.02l8.55,1.16l0.32-2.38l-8.64-1.17
		c-1.1-0.15-1.88-0.21-2.33-0.18c-0.7,0.05-1.32,0.22-1.86,0.5s-1.01,0.76-1.41,1.43c-0.4,0.67-0.66,1.43-0.77,2.27
		c-0.27,1.95,0.3,3.54,1.71,4.79l-2-0.27l-0.29,2.14l14.05,1.91L18.24,66.79z"/>
	<path class="st1" d="M23.97,46.35l-6.7-4.3l2.71-4.22c1.5-2.33,2.04-4.25,1.65-5.77c-0.4-1.51-1.3-2.72-2.7-3.62
		c-0.82-0.52-1.67-0.84-2.57-0.94c-0.9-0.1-1.71,0-2.44,0.3c-0.73,0.3-1.42,0.82-2.08,1.54c-0.48,0.51-1.06,1.31-1.77,2.4L6.1,37.95
		l16.47,10.58L23.97,46.35z M9.45,37.02l2.71-4.21c0.63-0.99,1.12-1.64,1.45-1.94c0.52-0.47,1.14-0.72,1.86-0.75
		c0.71-0.03,1.42,0.17,2.1,0.61c0.95,0.61,1.5,1.38,1.64,2.31c0.14,0.93-0.24,2.1-1.14,3.5l-2.73,4.26L9.45,37.02z"/>
	
		<rect x="25.19" y="17.29" transform="matrix(0.7082 -0.7061 0.7061 0.7082 -11.4174 26.5398)" class="st1" width="2.4" height="19.57"/>
	<path class="st1" d="M36.03,29.11c1.72,0.38,3.44-0.02,5.16-1.18c1.36-0.92,2.26-2.01,2.69-3.27c0.43-1.26,0.4-2.6-0.09-4.02
		l-2.23,1.14c0.27,1.04,0.27,1.93,0.02,2.67s-0.75,1.35-1.48,1.84c-0.98,0.66-2.03,0.88-3.15,0.63c-1.12-0.24-2.15-0.98-3.1-2.22
		l8.76-5.93c-0.15-0.24-0.27-0.42-0.35-0.54c-1.31-1.94-2.83-3.1-4.55-3.5s-3.36-0.06-4.93,1c-1.62,1.1-2.57,2.54-2.85,4.32
		c-0.28,1.78,0.25,3.66,1.59,5.63C32.8,27.59,34.31,28.73,36.03,29.11z M32.22,19.83c0.21-1.03,0.77-1.86,1.68-2.48
		c1.01-0.68,2.09-0.86,3.24-0.52c0.75,0.21,1.5,0.79,2.26,1.71l-6.56,4.44C32.22,21.92,32.01,20.87,32.22,19.83z"/>
	<path class="st1" d="M59.47,19.53c-0.46-0.42-0.83-0.89-1.12-1.42c-0.29-0.53-0.78-1.85-1.49-3.97l-1.02-3.04
		c-0.34-1.01-0.61-1.7-0.82-2.06c-0.34-0.58-0.75-1.02-1.23-1.31s-1.12-0.46-1.92-0.49c-0.81-0.03-1.79,0.15-2.93,0.53
		c-1.16,0.39-2.12,0.89-2.89,1.5c-0.77,0.61-1.29,1.29-1.56,2.03c-0.27,0.74-0.34,1.62-0.23,2.65l2.33-0.44
		c-0.07-1.04,0.08-1.83,0.47-2.37c0.38-0.55,1.11-1,2.19-1.36c1.15-0.38,2.1-0.42,2.85-0.1c0.56,0.24,0.99,0.82,1.3,1.75
		c0.03,0.08,0.09,0.28,0.19,0.6c-0.77,0.59-2.04,1.31-3.8,2.15c-0.87,0.41-1.5,0.75-1.91,1.02c-0.55,0.37-1.01,0.8-1.39,1.3
		c-0.38,0.49-0.62,1.06-0.74,1.71c-0.12,0.64-0.07,1.3,0.15,1.95c0.38,1.12,1.08,1.91,2.12,2.37c1.04,0.46,2.29,0.44,3.77-0.06
		c0.9-0.3,1.68-0.73,2.36-1.29c0.68-0.56,1.32-1.34,1.93-2.34c0.28,0.61,0.62,1.11,1.01,1.51L59.47,19.53z M54.86,17.03
		c-0.1,0.77-0.42,1.47-0.98,2.08c-0.56,0.61-1.27,1.07-2.15,1.36c-0.89,0.3-1.63,0.32-2.22,0.07s-1-0.68-1.2-1.29
		c-0.13-0.4-0.15-0.79-0.05-1.19c0.1-0.4,0.32-0.74,0.65-1.04c0.33-0.3,0.94-0.67,1.84-1.12c1.57-0.79,2.72-1.49,3.43-2.11
		l0.28,0.84C54.8,15.64,54.93,16.44,54.86,17.03z"/>
	<path class="st1" d="M71.13,12.48c-0.42-0.53-0.97-0.91-1.66-1.16c-0.69-0.24-1.9-0.54-3.62-0.88c-1.19-0.24-1.91-0.4-2.16-0.48
		c-0.43-0.14-0.75-0.33-0.96-0.58c-0.21-0.24-0.33-0.51-0.35-0.82C62.35,8.08,62.56,7.64,63,7.25c0.45-0.4,1.22-0.63,2.32-0.7
		c0.93-0.06,1.67,0.1,2.21,0.47c0.54,0.38,0.88,0.92,1.04,1.65l2.32-0.47c-0.21-0.9-0.53-1.62-0.97-2.14
		c-0.44-0.52-1.08-0.91-1.94-1.18c-0.86-0.27-1.85-0.36-2.96-0.29c-0.74,0.05-1.42,0.19-2.05,0.42c-0.63,0.23-1.13,0.5-1.48,0.8
		c-0.47,0.39-0.84,0.86-1.09,1.42C60.15,7.78,60.04,8.37,60.08,9c0.04,0.69,0.26,1.31,0.65,1.86c0.39,0.55,0.93,0.97,1.63,1.25
		s1.94,0.58,3.73,0.91c1.33,0.24,2.16,0.46,2.5,0.65c0.49,0.28,0.75,0.69,0.79,1.23c0.04,0.6-0.19,1.15-0.7,1.63
		c-0.5,0.48-1.31,0.76-2.41,0.83c-1.09,0.07-1.96-0.13-2.6-0.59c-0.64-0.47-1.06-1.17-1.25-2.11l-2.35,0.53
		c0.36,1.48,1.05,2.58,2.07,3.28c1.01,0.7,2.44,0.99,4.28,0.87c1.11-0.07,2.09-0.33,2.95-0.77c0.85-0.44,1.49-1.03,1.91-1.77
		c0.42-0.74,0.61-1.5,0.55-2.3C71.78,13.68,71.55,13.01,71.13,12.48z"/>
	<path class="st1" d="M83.82,19.78c1.19-0.59,2.12-1.56,2.78-2.91l-2.38-0.77c-0.55,0.93-1.17,1.56-1.87,1.9
		c-0.7,0.34-1.48,0.42-2.35,0.26c-1.16-0.22-2.05-0.82-2.68-1.78c-0.62-0.96-0.83-2.22-0.62-3.76l10.38,2
		c0.06-0.28,0.11-0.49,0.13-0.63c0.44-2.3,0.2-4.2-0.74-5.69c-0.94-1.49-2.33-2.42-4.2-2.78c-1.92-0.37-3.61-0.02-5.07,1.04
		s-2.41,2.76-2.86,5.11c-0.44,2.26-0.18,4.14,0.77,5.62c0.95,1.48,2.45,2.42,4.48,2.81C81.22,20.51,82.63,20.37,83.82,19.78z
		 M78.99,8.12c0.88-0.58,1.86-0.77,2.94-0.56c1.2,0.23,2.08,0.87,2.66,1.93c0.38,0.68,0.5,1.62,0.38,2.81l-7.78-1.5
		C77.51,9.6,78.11,8.71,78.99,8.12z"/>
</g>
</svg>
