<svg x="0px" y="0px"
          viewBox="0 0 141.73 141.73">
          <path d="M139.72,122.8l-39.56-39.56c5.27-8.3,8.33-18.14,8.33-28.69c0-29.62-24.01-53.63-53.63-53.63S1.23,24.93,1.23,54.55
          s24.01,53.63,53.63,53.63c11.85,0,22.79-3.85,31.66-10.35l39.09,39.09c3.11,3.11,8.2,3.11,11.31,0l2.8-2.8
          C142.83,131.01,142.83,125.92,139.72,122.8z M54.86,89.47c-19.29,0-34.92-15.63-34.92-34.92c0-19.29,15.63-34.92,34.92-34.92
          c19.29,0,34.92,15.63,34.92,34.92C89.78,73.84,74.14,89.47,54.86,89.47z"/></svg>