<?xml version="1.0" encoding="utf-8"?>
<!-- Generator: Adobe Illustrator 24.0.2, SVG Export Plug-In . SVG Version: 6.00 Build 0)  -->
<svg version="1.1" id="Layer_1" xmlns="http://www.w3.org/2000/svg" xmlns:xlink="http://www.w3.org/1999/xlink" x="0px" y="0px"
	 viewBox="0 0 611.6 109.1" style="enable-background:new 0 0 611.6 109.1; fill: #fff;" xml:space="preserve">
<g>
	<path d="M55,77.7l-2.2,11.9c-0.2,1.1-1.3,1.8-2.3,1.6c-1.1-0.2-1.8-1.3-1.6-2.3l1.7-9.5H36.9l-2.1,12.3c-0.6,3.2-3.3,6.6-8,6.6
		c-2.3,0-4.5-1-6-2.7c-1.5-1.8-2.2-4.1-1.8-6.6l1.6-9.6h-2.8c-4.4,0-7.9-3.5-7.9-7.9s3.6-7.9,7.9-7.9h5.5L26,47.9h-4.2
		c-4.3,0-7.9-3.6-7.9-7.9s3.6-7.9,7.9-7.9h6.9l2-11.8c0.6-3.9,3.8-6.6,7.9-6.6c2.3,0,4.4,0.9,5.9,2.7c1.6,1.8,2.3,4.2,2,6.5L44.9,32
		h4.4c1.1,0,2,0.9,2,2s-0.9,2-2,2h-6.9c-0.6,0-1.2-0.3-1.5-0.7c-0.4-0.5-0.5-1.1-0.4-1.7l2-11.5c0.1-1.1-0.2-2.3-1-3.2
		c-0.7-0.8-1.8-1.3-2.9-1.3c-2,0-3.6,1.3-3.9,3.2l-2.3,13.5c-0.2,1-1,1.7-2,1.7h-8.6c-2.1,0-3.9,1.8-3.9,3.9c0,2.1,1.8,3.9,3.9,3.9
		h6.6c0.6,0,1.2,0.3,1.5,0.7s0.5,1.1,0.5,1.7L27,65.9c-0.2,1-1,1.7-2,1.7h-7.3c-2.1,0-3.9,1.8-3.9,3.9c0,2.2,1.7,3.9,3.9,3.9H23
		c0.6,0,1.2,0.3,1.5,0.7c0.4,0.4,0.5,1.1,0.5,1.7l-2,11.9c-0.2,1.2,0.1,2.4,0.9,3.3c0.7,0.8,1.8,1.3,2.9,1.3c2.4,0,3.7-1.6,4-3.2
		L33.2,77c0.2-1,1-1.7,2-1.7H53c0.6,0,1.2,0.3,1.5,0.7C54.9,76.5,55.1,77.1,55,77.7z M52.9,65.2l3-17.4H42.3l-2.7,15.7h5.5
		c1.1,0,2,0.9,2,2s-0.9,2-2,2h-8c-0.6,0-1.2-0.3-1.5-0.7c-0.4-0.5-0.5-1.1-0.5-1.7l3.4-19.7c0.2-1,1-1.7,2-1.7h17.7
		c0.6,0,1.2,0.3,1.5,0.7c0.4,0.5,0.5,1.1,0.5,1.7l-3.4,19.7c-0.2,1-1,1.7-2,1.7c-0.1,0-0.2,0-0.3,0C53.5,67.3,52.7,66.3,52.9,65.2z
		 M77.7,47.8h-5.6l-2.7,15.7h4.1c4.4,0,7.9,3.5,7.9,7.9s-3.6,7.9-7.9,7.9h-6.8l-2.1,12.3c-0.6,3.8-3.9,6.6-7.9,6.6c-1.1,0-2-0.9-2-2
		s0.9-2,2-2c2,0,3.6-1.3,3.9-3.2L63,77c0.2-1,1-1.7,2-1.7h8.5c2.1,0,3.9-1.8,3.9-3.9c0-2.2-1.7-3.9-3.9-3.9H67
		c-0.6,0-1.2-0.3-1.6-0.7c-0.4-0.5-0.6-1.1-0.4-1.7l3.4-19.7c0.2-1,1-1.7,2-1.7h7.3c2.1,0,3.9-1.8,3.9-3.9c0-2.1-1.8-3.9-3.9-3.9
		h-5.2c-0.6,0-1.2-0.3-1.6-0.7c-0.4-0.5-0.6-1.1-0.4-1.6l1.9-11.5c0.2-1.1-0.2-2.3-0.9-3.2c-0.7-0.9-1.8-1.4-2.9-1.4
		c-2.1,0-3.7,1.3-4,3.2l-2.3,13.5c-0.2,1.1-1.2,1.8-2.3,1.7c-1.1-0.2-1.8-1.2-1.7-2.3l2.3-13.5c0.6-3.9,3.9-6.6,8-6.6
		c2.3,0,4.4,1,5.9,2.8s2.2,4.2,1.8,6.5L74.9,32h2.8c4.4,0,7.9,3.5,7.9,7.9C85.6,44.2,82,47.8,77.7,47.8L77.7,47.8z"/>
</g>
<path d="M525.5,0.4L525.5,0.4h-7h-79.2l0,0h-7l0,0h-79.2h-7h-79.3h-6.9h-79.3h-7H94.3h-7H1.2v108.7h86.2h7h79.2h7h79.3h6.9h79.3l0,0
	h7h79.2l0,0h7l0,0h79.2h7l0,0h86.2V0.4H525.5z M87.4,102.1L87.4,102.1H8.2V7.4h79.2C87.4,7.4,87.4,102.1,87.4,102.1z M173.6,102.1
	H94.3V7.4h79.2v94.7H173.6z M259.8,102.1h-79.2V7.4h79.2V102.1z M266.9,102.1V7.4h79.2v94.7H266.9z M432.3,102.1L432.3,102.1h-79.2
	V7.4h79.2V102.1z M439.3,102.1V7.4h79.2v94.7H439.3z M604.7,102.1h-79.2V7.4h79.2V102.1z"/>
<g>
	<path d="M127.9,34.1c2.2,0.8,4,2.3,5.5,4.3c1.5,2.1,2.2,4.3,2.2,6.8c0,3.2-1.2,6-3.5,8.3c-2.4,2.4-5.2,3.6-8.4,3.6
		c-3.3,0-6.2-1.2-8.5-3.6c-2.4-2.3-3.6-5.1-3.6-8.3c0-2.6,0.7-4.9,2.2-6.9s3.4-3.4,5.8-4.2v-2.6h-18.7V24h18.7V13.3h8.3V24h18.9v7.5
		h-18.9C127.9,31.4,127.9,34.1,127.9,34.1z M116.8,75.7h39.1v-5h-40.1v-8H156V14.1h8.4l-0.1,68.8L125.2,83v4.9h41.6v8h-50
		L116.8,75.7L116.8,75.7z M122.9,41.2c-1,0.2-1.8,0.6-2.5,1.4c-0.6,0.8-0.9,1.7-0.9,2.7c0,1.1,0.4,2,1.2,2.8c0.8,0.8,1.8,1.3,3,1.3
		c1.1,0,2.1-0.4,2.9-1.3c0.8-0.8,1.3-1.7,1.3-2.8c0-1-0.3-2-1-2.7c-0.7-0.8-1.5-1.3-2.6-1.4H122.9z"/>
</g>
<g>
	<path d="M240.1,57.4h-49.9V34.3h26.6v-6.7h-27.6v-7.9h36v22.2h-26.8v7.6H240V14.1h8.4v60.1H240V57.4H240.1z M217.3,94.2
		c-2.8-2.7-4.2-5.9-4.2-9.6c0-3.8,1.4-7.1,4.2-9.7c2.7-2.6,6.1-3.9,9.9-3.9c3.8,0,7.1,1.3,9.9,3.9c2.9,2.6,4.3,5.8,4.3,9.7
		c0,3.7-1.4,6.9-4.3,9.6c-2.8,2.6-6.1,3.9-9.9,3.9C223.4,98.2,220.1,96.9,217.3,94.2z M222.8,80.5c-1.2,1.2-1.7,2.6-1.7,4.2
		c0,1.5,0.6,2.8,1.7,3.9c1.2,1.2,2.7,1.8,4.5,1.8s3.3-0.6,4.5-1.8c1.2-1.1,1.8-2.4,1.8-3.9c0-1.6-0.6-3-1.8-4.2s-2.7-1.7-4.5-1.7
		C225.5,78.7,224,79.3,222.8,80.5z"/>
</g>
<path d="M316.7,80.7c-4.5,0.7-14,1-28.8,1V38h25.8v7.4h-17.2v9h11.8v7.1h-11.8v13h3.8c5.9,0,11.1-0.3,15.8-0.9L316.7,80.7z
	 M312.5,65.4V58h9.1V33.6h8.7v64.2h-8.7V65.4H312.5z M334.9,99.8V32.2h8.8v67.6H334.9z"/>
<path d="M370,80.8V38h32.7v42.8H370z M394,45.3h-15.3v28.1H394V45.3z M421,65.6v34.2h-8.7V32.2h8.7v26h10.6v7.4H421z"/>
<path d="M491.2,74.5c-3.2,5.9-8,8.8-14.6,8.8c-5.3,0-9.6-2.1-12.8-6.3c-3.2-4.2-4.9-9.9-4.9-17.1c0-7.4,1.6-13.1,4.9-17.2
	c3.2-4.1,7.5-6.2,12.8-6.2c6.5,0,11.4,2.9,14.6,8.8H506V32.2h8.6v67.6H506V74.5H491.2z M476.7,44c-2.6,0-4.8,1.4-6.6,4.3
	c-1.7,2.9-2.6,6.8-2.6,11.7s0.9,8.8,2.7,11.6c1.8,2.9,4,4.3,6.5,4.3c2.6,0,4.8-1.4,6.6-4.3c1.8-2.9,2.7-6.8,2.7-11.6
	c0-4.9-0.9-8.8-2.6-11.7C481.6,45.4,479.4,44,476.7,44z M493.8,67.1H506V52.7h-12.1c0.4,2.1,0.6,4.5,0.6,7.2
	C494.5,62.5,494.3,64.9,493.8,67.1z"/>
<path d="M544.4,47.3v-7.1h13.1v-6.9h8.7v6.9h12.9v7.1H544.4z M561.9,73.7c-4.7,0-8.5-1.1-11.4-3.3c-2.9-2.2-4.3-5.1-4.3-8.8
	s1.4-6.7,4.3-8.8c2.9-2.2,6.7-3.3,11.4-3.3s8.5,1.1,11.4,3.3s4.3,5.1,4.3,8.8s-1.4,6.7-4.3,8.9C570.5,72.6,566.7,73.7,561.9,73.7z
	 M561.9,56.5c-2.2,0-3.9,0.5-5.2,1.4s-2,2.2-2,3.6c0,1.5,0.6,2.7,1.9,3.6c1.3,0.9,3,1.4,5.3,1.4c2.1,0,3.9-0.5,5.2-1.5
	c1.4-1,2-2.2,2-3.6c0-1.5-0.7-2.7-2-3.6C565.9,57,564.1,56.5,561.9,56.5z M580.9,101.1c-7.2,0-12.9-1.2-16.9-3.6s-6-5.6-6-9.6
	s2-7.2,6.1-9.6s9.7-3.6,16.8-3.6s12.7,1.2,16.8,3.6s6.1,5.6,6.1,9.5s-2,7.1-6,9.5C593.7,99.9,588.1,101.1,580.9,101.1z M580.9,82
	c-4.6,0-8.1,0.5-10.5,1.6c-2.3,1.1-3.5,2.5-3.5,4.3s1.2,3.3,3.6,4.4c2.4,1.1,5.8,1.6,10.4,1.6c4.5,0,8-0.5,10.3-1.6
	c2.4-1.1,3.6-2.5,3.6-4.4c0-1.8-1.2-3.2-3.5-4.3C588.9,82.5,585.5,82,580.9,82z M594.7,74.7V60.5h-4.1v11.8H582V34.9h8.5V53h4.1
	V33.6h8.7v41.1H594.7z"/>
</svg>
