<?xml version="1.0" encoding="utf-8"?>
<!-- Generator: Adobe Illustrator 24.0.2, SVG Export Plug-In . SVG Version: 6.00 Build 0)  -->
<svg version="1.1" id="Layer_1" xmlns="http://www.w3.org/2000/svg" xmlns:xlink="http://www.w3.org/1999/xlink" x="0px" y="0px"
	 viewBox="0 0 283.46 84.55" style="enable-background:new 0 0 283.46 84.55;" xml:space="preserve">
<style type="text/css">
	.st0{fill:#FFFFFF;}
</style>
<g>
	<path class="st0" d="M45.06,64.07l-2.16,11.9c-0.2,1.1-1.25,1.84-2.35,1.63c-1.1-0.2-1.83-1.25-1.63-2.35l1.72-9.52H26.97
		l-2.09,12.26c-0.58,3.17-3.33,6.56-8.01,6.56c-2.32,0-4.5-0.98-5.97-2.69c-1.53-1.77-2.17-4.1-1.81-6.55l1.64-9.59H7.92
		C3.48,65.73,0,62.25,0,57.81c0-4.37,3.55-7.92,7.92-7.92h5.55l2.7-15.68H12c-4.29,0-7.92-3.63-7.92-7.92
		c0-4.29,3.63-7.92,7.92-7.92h6.9l1.98-11.8C21.48,2.71,24.73,0,28.78,0c2.3,0,4.4,0.95,5.92,2.68c1.57,1.78,2.29,4.16,1.99,6.52
		l-1.63,9.17h4.44c1.12,0,2.03,0.91,2.03,2.02c0,1.12-0.91,2.02-2.03,2.02h-6.86c-0.6,0-1.17-0.26-1.55-0.72
		c-0.38-0.46-0.55-1.07-0.44-1.65l2.04-11.45c0.14-1.11-0.23-2.32-1.03-3.23c-0.74-0.84-1.76-1.3-2.87-1.3
		c-2.04,0-3.6,1.27-3.89,3.16l-2.27,13.52c-0.16,0.98-1.01,1.69-2,1.69H12c-2.06,0-3.87,1.81-3.87,3.87c0,2.06,1.81,3.87,3.87,3.87
		h6.58c0.6,0,1.16,0.26,1.55,0.72c0.38,0.46,0.55,1.06,0.45,1.65l-3.4,19.73c-0.17,0.97-1.01,1.68-1.99,1.68H7.92
		c-2.1,0-3.87,1.77-3.87,3.87c0,2.17,1.7,3.87,3.87,3.87h5.22c0.6,0,1.16,0.26,1.55,0.72c0.38,0.45,0.55,1.06,0.45,1.65l-2.04,11.91
		c-0.18,1.22,0.13,2.4,0.88,3.27c0.72,0.83,1.75,1.28,2.91,1.28c2.37,0,3.73-1.61,4.02-3.21l2.38-13.92c0.17-0.97,1.01-1.68,2-1.68
		h17.8c0.6,0,1.17,0.27,1.55,0.73C45,62.86,45.17,63.47,45.06,64.07z M43,51.57l2.99-17.36H32.41l-2.7,15.68h5.54
		c1.12,0,2.02,0.91,2.02,2.02c0,1.12-0.91,2.03-2.02,2.03h-7.94c-0.6,0-1.17-0.27-1.55-0.72c-0.38-0.46-0.55-1.06-0.45-1.65
		l3.4-19.73c0.17-0.97,1.01-1.68,2-1.68h17.69c0.6,0,1.16,0.26,1.55,0.72c0.38,0.46,0.55,1.06,0.45,1.65l-3.4,19.73
		c-0.17,0.99-1.02,1.68-1.99,1.68c-0.11,0-0.23-0.01-0.35-0.03C43.55,53.72,42.81,52.67,43,51.57z M67.78,34.21h-5.55l-2.7,15.68
		h4.06c4.44,0,7.92,3.48,7.92,7.92c0,4.37-3.55,7.92-7.92,7.92h-6.8L54.7,77.99c-0.61,3.79-3.93,6.56-7.89,6.56
		c-1.12,0-2.02-0.91-2.02-2.03s0.91-2.02,2.02-2.02c1.96,0,3.6-1.33,3.9-3.17l2.39-13.97c0.16-0.97,1.01-1.68,2-1.68h8.5
		c2.1,0,3.87-1.77,3.87-3.87c0-2.17-1.7-3.87-3.87-3.87h-6.46c-0.6,0-1.17-0.26-1.55-0.72s-0.55-1.06-0.45-1.65l3.4-19.73
		c0.17-0.97,1.01-1.68,2-1.68h7.26c2.06,0,3.87-1.81,3.87-3.87c0-2.1-1.77-3.87-3.87-3.87h-5.22c-0.6,0-1.16-0.26-1.55-0.72
		c-0.38-0.45-0.55-1.06-0.45-1.64L62.5,8.61c0.18-1.13-0.16-2.3-0.93-3.2c-0.74-0.87-1.76-1.35-2.86-1.35
		c-2.11,0-3.72,1.27-4.01,3.16l-2.27,13.52c-0.18,1.1-1.23,1.84-2.33,1.66c-1.1-0.19-1.85-1.23-1.66-2.33l2.27-13.49
		C51.3,2.71,54.59,0,58.71,0c2.27,0,4.44,1.01,5.94,2.78c1.54,1.81,2.21,4.18,1.84,6.49l-1.53,9.1h2.82c4.37,0,7.92,3.55,7.92,7.92
		C75.7,30.58,72.08,34.21,67.78,34.21L67.78,34.21z"/>
</g>
<g>
	<path class="st0" d="M112.84,10.43c6.11,0,11.43,1.49,15.78,4.39c3.35,2.29,5.08,4.51,5.16,6.6c-0.08,0.09-0.26,0.26-0.61,0.48
		c-1.13,0.65-2.92,1-5.2,1c-1.11,0-1.67-0.32-1.99-0.56l-0.15-0.11l-0.16-0.1c-0.06-0.04-0.65-0.41-1.85-1.87
		c-1.47-1.86-2.69-3.1-3.84-3.91l-0.06-0.04l-0.07-0.04c-2.03-1.31-4.43-1.97-7.13-1.97c-4.16,0-6.61,1.91-7.95,3.54
		c-1.64,2.02-2.47,4.45-2.47,7.25c0,3.93,1.18,7.06,3.51,9.28c2.28,2.26,5.73,3.65,10.48,4.24c5.86,0.81,10.58,2.32,14.03,4.5
		l0.03,0.02l0.03,0.02c4.8,2.92,7.04,6.8,7.04,12.2c0,5.8-1.82,10.26-5.57,13.61c-3.88,3.47-9.03,5.16-15.74,5.16
		c-5.58,0-10.39-0.83-14.35-2.49c-4.11-1.68-7-4.05-8.8-7.21c-1.07-1.91-1.32-2.96-1.38-3.4c0.13-0.07,0.35-0.15,0.66-0.24
		l0.12-0.03l0.12-0.04c1.72-0.6,3.24-0.91,4.52-0.91c0.42,0,0.82,0.03,1.18,0.1l0.07,0.01l0.07,0.01c1.02,0.15,1.14,0.46,1.25,0.71
		l0.01,0.03l0.01,0.03c1.27,2.98,3.23,5.36,5.82,7.08c2.6,1.73,5.66,2.61,9.12,2.61c3.34,0,6.15-0.99,8.32-2.92
		c2.76-2.4,4.16-5.94,4.16-10.53c0-4.74-2.24-8.42-6.47-10.67c-2.16-1.17-5.76-2.29-11.32-3.53l-0.08-0.02l-0.08-0.01l-2.6-0.47
		c-4.47-0.97-7.96-2.62-10.37-4.9c-2.83-2.71-4.21-6.16-4.21-10.55c0-4.28,1.64-7.88,4.99-10.97
		C100.85,12.19,106.07,10.43,112.84,10.43 M112.84,6.43c-7.75,0-13.97,2.14-18.65,6.42c-4.2,3.87-6.3,8.52-6.3,13.93
		c0,5.49,1.82,9.97,5.45,13.44c2.99,2.83,7.1,4.8,12.35,5.93l2.66,0.48c5.09,1.13,8.52,2.18,10.29,3.15
		c2.91,1.54,4.36,3.92,4.36,7.14c0,3.39-0.93,5.89-2.79,7.51c-1.45,1.29-3.35,1.94-5.69,1.94c-2.66,0-4.96-0.64-6.9-1.94
		c-1.94-1.29-3.39-3.07-4.36-5.33c-0.73-1.78-2.18-2.82-4.36-3.15c-0.6-0.11-1.24-0.17-1.91-0.17c-1.74,0-3.68,0.38-5.84,1.14
		c-2.02,0.57-3.19,1.57-3.51,3.03c-0.32,1.54,0.28,3.67,1.82,6.42c2.26,3.96,5.85,6.94,10.78,8.96c4.44,1.86,9.73,2.79,15.86,2.79
		c7.67,0,13.8-2.06,18.41-6.18c4.6-4.12,6.9-9.65,6.9-16.59c0-6.78-2.99-11.99-8.96-15.62c-3.96-2.5-9.16-4.2-15.62-5.09
		c-3.87-0.48-6.62-1.53-8.23-3.15c-1.54-1.45-2.3-3.59-2.3-6.42c0-1.86,0.52-3.43,1.57-4.72c1.13-1.37,2.74-2.06,4.84-2.06
		c1.94,0,3.59,0.45,4.96,1.33c0.81,0.57,1.82,1.62,3.03,3.15c1.13,1.37,2.1,2.3,2.91,2.79c1.21,0.89,2.66,1.33,4.36,1.33
		c3.07,0,5.49-0.52,7.27-1.57c1.7-1.05,2.54-2.3,2.54-3.75c0-3.55-2.3-6.9-6.9-10.05C125.8,8.13,119.79,6.43,112.84,6.43
		L112.84,6.43z"/>
	<path class="st0" d="M189.25,10.43c5.71,0,10.24,1.63,13.86,4.98c4.12,3.85,6.12,9.27,6.12,16.57v36.45c0,0.96-0.13,2.23-0.76,2.86
		c-0.39,0.33-1.6,1.01-4.8,1.01c-1.95,0-3.38-0.36-3.94-0.98c-0.18-0.24-0.65-1.08-0.65-3.26V32.35c0-4.67-0.85-8.65-2.52-11.8
		c-2.13-4.03-5.54-6.25-9.59-6.25c-4.97,0-9.17,2.37-12.17,6.87l-0.03,0.05l-0.03,0.05c-2.41,3.86-3.64,8.65-3.64,14.23v32.69
		c0,1.88-0.38,2.89-0.71,3.18l-0.05,0.04l-0.05,0.04c-0.01,0.01-0.95,0.85-5.01,0.85c-2.42,0-3.48-0.45-3.77-0.68
		c-0.1-0.22-0.46-1.14-0.46-3.55V19.87c0-4.11,0.79-5.91,1.26-6.62l0.02-0.03l0.02-0.03c0.3-0.46,1-1.55,3.78-1.55
		c1.47,0,2.7,0.17,3.63,0.5l0.03,0.01l0.03,0.01c0.15,0.05,0.58,0.23,1.34,0.78l0.26,0.19l0.29,0.15c0.15,0.07,0.28,0.14,0.39,0.2
		c0.8,0.54,1.74,0.84,2.74,0.84c1.03,0,2.08-0.26,3.11-0.78c0.33-0.16,0.81-0.41,1.47-0.73l0.11-0.05l0.1-0.06
		c1.25-0.72,2.35-1.25,3.27-1.57C184.63,10.66,186.77,10.43,189.25,10.43 M189.25,6.43c-2.91,0-5.41,0.28-7.51,0.85
		c-1.21,0.4-2.58,1.05-4.12,1.94c-0.65,0.32-1.13,0.57-1.45,0.73c-0.48,0.24-0.93,0.36-1.33,0.36c-0.24,0-0.45-0.08-0.61-0.24
		c-0.16-0.08-0.4-0.2-0.73-0.36c-0.89-0.64-1.7-1.09-2.42-1.33c-1.37-0.48-3.03-0.73-4.96-0.73c-3.31,0-5.69,1.13-7.14,3.39
		c-1.29,1.94-1.94,4.88-1.94,8.84v48.19c0,2.91,0.44,4.93,1.33,6.05c1.21,1.45,3.51,2.18,6.9,2.18c3.79,0,6.38-0.64,7.75-1.94
		c1.37-1.21,2.06-3.27,2.06-6.18V35.49c0-4.84,1.01-8.88,3.03-12.11c2.26-3.39,5.21-5.09,8.84-5.09c2.58,0,4.6,1.37,6.05,4.12
		c1.37,2.58,2.06,5.89,2.06,9.93v35.72c0,2.58,0.52,4.52,1.57,5.81c1.37,1.62,3.71,2.42,7.02,2.42c3.47,0,5.97-0.69,7.51-2.06
		c1.37-1.29,2.06-3.23,2.06-5.81V31.98c0-8.39-2.46-14.89-7.39-19.5C201.48,8.45,195.95,6.43,189.25,6.43L189.25,6.43z"/>
	<path class="st0" d="M254.88,10.43c6.11,0,11.43,1.49,15.78,4.39c3.35,2.29,5.08,4.51,5.16,6.6c-0.08,0.09-0.26,0.26-0.61,0.48
		c-1.13,0.65-2.92,1-5.2,1c-1.11,0-1.67-0.32-1.99-0.56l-0.15-0.11l-0.16-0.1c-0.06-0.04-0.65-0.41-1.85-1.87
		c-1.47-1.86-2.69-3.1-3.84-3.91l-0.06-0.04l-0.07-0.04c-2.03-1.31-4.43-1.97-7.13-1.97c-4.16,0-6.61,1.91-7.95,3.54
		c-1.64,2.02-2.47,4.45-2.47,7.25c0,3.93,1.18,7.06,3.51,9.28c2.28,2.26,5.73,3.65,10.48,4.24c5.86,0.81,10.58,2.32,14.03,4.5
		l0.03,0.02l0.03,0.02c4.8,2.92,7.04,6.8,7.04,12.2c0,5.8-1.82,10.26-5.57,13.61c-3.88,3.47-9.03,5.16-15.74,5.16
		c-5.58,0-10.39-0.83-14.35-2.49c-4.11-1.68-7-4.05-8.8-7.21c-1.07-1.91-1.32-2.96-1.38-3.4c0.13-0.07,0.35-0.15,0.66-0.24
		l0.12-0.03l0.12-0.04c1.72-0.6,3.24-0.91,4.52-0.91c0.42,0,0.82,0.03,1.18,0.1l0.07,0.01l0.07,0.01c1.02,0.15,1.14,0.46,1.25,0.71
		l0.01,0.03l0.01,0.03c1.27,2.98,3.23,5.36,5.82,7.08c2.6,1.73,5.66,2.61,9.12,2.61c3.34,0,6.15-0.99,8.32-2.92
		c2.76-2.4,4.16-5.94,4.16-10.53c0-4.74-2.24-8.42-6.47-10.67c-2.16-1.17-5.76-2.29-11.32-3.53l-0.08-0.02l-0.08-0.01l-2.6-0.47
		c-4.47-0.97-7.96-2.62-10.37-4.9c-2.83-2.71-4.21-6.16-4.21-10.55c0-4.28,1.64-7.88,4.99-10.97
		C242.89,12.19,248.11,10.43,254.88,10.43 M254.88,6.43c-7.75,0-13.97,2.14-18.65,6.42c-4.2,3.87-6.3,8.52-6.3,13.93
		c0,5.49,1.82,9.97,5.45,13.44c2.99,2.83,7.1,4.8,12.35,5.93l2.66,0.48c5.09,1.13,8.52,2.18,10.29,3.15
		c2.91,1.54,4.36,3.92,4.36,7.14c0,3.39-0.93,5.89-2.79,7.51c-1.45,1.29-3.35,1.94-5.69,1.94c-2.66,0-4.96-0.64-6.9-1.94
		c-1.94-1.29-3.39-3.07-4.36-5.33c-0.73-1.78-2.18-2.82-4.36-3.15c-0.6-0.11-1.24-0.17-1.91-0.17c-1.74,0-3.68,0.38-5.84,1.14
		c-2.02,0.57-3.19,1.57-3.51,3.03c-0.32,1.54,0.28,3.67,1.82,6.42c2.26,3.96,5.85,6.94,10.78,8.96c4.44,1.86,9.73,2.79,15.86,2.79
		c7.67,0,13.8-2.06,18.41-6.18s6.9-9.65,6.9-16.59c0-6.78-2.99-11.99-8.96-15.62c-3.96-2.5-9.16-4.2-15.62-5.09
		c-3.87-0.48-6.62-1.53-8.23-3.15c-1.54-1.45-2.3-3.59-2.3-6.42c0-1.86,0.52-3.43,1.57-4.72c1.13-1.37,2.74-2.06,4.84-2.06
		c1.94,0,3.59,0.45,4.96,1.33c0.81,0.57,1.82,1.62,3.03,3.15c1.13,1.37,2.1,2.3,2.91,2.79c1.21,0.89,2.66,1.33,4.36,1.33
		c3.07,0,5.49-0.52,7.27-1.57c1.7-1.05,2.54-2.3,2.54-3.75c0-3.55-2.3-6.9-6.9-10.05C267.84,8.13,261.82,6.43,254.88,6.43
		L254.88,6.43z"/>
</g>
</svg>
