<?xml version="1.0" encoding="utf-8"?>
<!-- Generator: Adobe Illustrator 24.0.2, SVG Export Plug-In . SVG Version: 6.00 Build 0)  -->
<svg version="1.1" id="Layer_1" xmlns="http://www.w3.org/2000/svg" xmlns:xlink="http://www.w3.org/1999/xlink" x="0px" y="0px"
	 viewBox="0 0 75.7 98.08" style="enable-background:new 0 0 75.7 98.08;" xml:space="preserve">
<style type="text/css">
	.st0{fill:#FFFFFF;}
</style>
<g>
	<path class="st0" d="M45.06,70.83l-2.16,11.9c-0.2,1.1-1.25,1.84-2.35,1.63c-1.1-0.2-1.83-1.25-1.63-2.35l1.72-9.52H26.97
		l-2.09,12.26c-0.58,3.17-3.33,6.56-8.01,6.56c-2.32,0-4.5-0.98-5.97-2.69c-1.53-1.77-2.17-4.1-1.81-6.55l1.64-9.59H7.92
		C3.48,72.49,0,69.01,0,64.57c0-4.37,3.55-7.92,7.92-7.92h5.55l2.7-15.68H12c-4.29,0-7.92-3.63-7.92-7.92
		c0-4.29,3.63-7.92,7.92-7.92h6.9l1.98-11.8c0.59-3.85,3.84-6.56,7.89-6.56c2.3,0,4.4,0.95,5.92,2.68c1.57,1.78,2.29,4.16,1.99,6.52
		l-1.63,9.17h4.44c1.12,0,2.03,0.91,2.03,2.02c0,1.12-0.91,2.02-2.03,2.02h-6.86c-0.6,0-1.17-0.26-1.55-0.72
		c-0.38-0.46-0.55-1.07-0.44-1.65l2.04-11.45c0.14-1.11-0.23-2.32-1.03-3.23c-0.74-0.84-1.76-1.3-2.87-1.3
		c-2.04,0-3.6,1.27-3.89,3.16l-2.27,13.52c-0.16,0.98-1.01,1.69-2,1.69H12c-2.06,0-3.87,1.81-3.87,3.87c0,2.06,1.81,3.87,3.87,3.87
		h6.58c0.6,0,1.16,0.26,1.55,0.72c0.38,0.46,0.55,1.06,0.45,1.65l-3.4,19.73c-0.17,0.97-1.01,1.68-1.99,1.68H7.92
		c-2.1,0-3.87,1.77-3.87,3.87c0,2.17,1.7,3.87,3.87,3.87h5.22c0.6,0,1.16,0.26,1.55,0.72c0.38,0.45,0.55,1.06,0.45,1.65l-2.04,11.91
		c-0.18,1.22,0.13,2.4,0.88,3.27c0.72,0.83,1.75,1.28,2.91,1.28c2.37,0,3.73-1.61,4.02-3.21l2.38-13.92c0.17-0.97,1.01-1.68,2-1.68
		h17.8c0.6,0,1.17,0.27,1.55,0.73C45,69.63,45.17,70.24,45.06,70.83z M43,58.33l2.99-17.36H32.41l-2.7,15.68h5.54
		c1.12,0,2.02,0.91,2.02,2.02s-0.91,2.03-2.02,2.03h-7.94c-0.6,0-1.17-0.27-1.55-0.72c-0.38-0.46-0.55-1.06-0.45-1.65l3.4-19.73
		c0.17-0.97,1.01-1.68,2-1.68h17.69c0.6,0,1.16,0.26,1.55,0.72c0.38,0.46,0.55,1.06,0.45,1.65l-3.4,19.73
		C46.82,60,45.96,60.7,45,60.7c-0.11,0-0.23-0.01-0.35-0.03C43.55,60.48,42.81,59.43,43,58.33z M67.78,40.97h-5.55l-2.7,15.68h4.06
		c4.44,0,7.92,3.48,7.92,7.92c0,4.37-3.55,7.92-7.92,7.92h-6.8L54.7,84.75c-0.61,3.79-3.93,6.56-7.89,6.56
		c-1.12,0-2.02-0.91-2.02-2.03c0-1.12,0.91-2.02,2.02-2.02c1.96,0,3.6-1.33,3.9-3.17l2.39-13.97c0.16-0.97,1.01-1.68,2-1.68h8.5
		c2.1,0,3.87-1.77,3.87-3.87c0-2.17-1.7-3.87-3.87-3.87h-6.46c-0.6,0-1.17-0.26-1.55-0.72s-0.55-1.06-0.45-1.65l3.4-19.73
		c0.17-0.97,1.01-1.68,2-1.68h7.26c2.06,0,3.87-1.81,3.87-3.87c0-2.1-1.77-3.87-3.87-3.87h-5.22c-0.6,0-1.16-0.26-1.55-0.72
		c-0.38-0.45-0.55-1.06-0.45-1.64l1.93-11.45c0.18-1.13-0.16-2.3-0.93-3.2c-0.74-0.87-1.76-1.35-2.86-1.35
		c-2.11,0-3.72,1.27-4.01,3.16l-2.27,13.52c-0.18,1.1-1.23,1.84-2.33,1.66c-1.1-0.19-1.85-1.23-1.66-2.33l2.27-13.49
		c0.59-3.85,3.89-6.56,8-6.56c2.27,0,4.44,1.01,5.94,2.78c1.54,1.81,2.21,4.18,1.84,6.49l-1.53,9.1h2.82c4.37,0,7.92,3.55,7.92,7.92
		C75.7,37.34,72.08,40.97,67.78,40.97L67.78,40.97z"/>
</g>
</svg>
